<?xml version="1.0" encoding="utf-8"?>
<!-- Generator: Adobe Illustrator 16.0.4, SVG Export Plug-In . SVG Version: 6.00 Build 0)  -->
<!DOCTYPE svg PUBLIC "-//W3C//DTD SVG 1.1//EN" "http://www.w3.org/Graphics/SVG/1.1/DTD/svg11.dtd">
<svg version="1.1" id="Layer_1" xmlns="http://www.w3.org/2000/svg" xmlns:xlink="http://www.w3.org/1999/xlink" x="0px" y="0px"
	 width="108.891px" height="304.096px" viewBox="0 0 108.891 304.096" enable-background="new 0 0 108.891 304.096"
	 xml:space="preserve">
<line fill="none" x1="0.819" y1="258.377" x2="109.347" y2="256.781"/>
<g>
	
		<rect x="1.408" y="1.408" fill="none" stroke="#FFFFFF" stroke-width="2.8163" stroke-miterlimit="10" width="106.074" height="301.279"/>
	<g>
		<path fill="#FFFFFF" d="M42.912,65.684c-2.29,0-4.33-0.331-6.124-0.994c-1.794-0.662-3.313-1.613-4.56-2.861
			c-1.248-1.246-2.203-2.764-2.861-4.559c-0.663-1.794-0.994-3.836-0.994-6.127c0-2.263,0.331-4.299,0.994-6.106
			c0.658-1.803,1.613-3.33,2.861-4.577c1.246-1.246,2.766-2.199,4.56-2.86c1.794-0.662,3.834-0.995,6.124-0.995
			c2.291,0,4.33,0.333,6.126,0.995c1.793,0.661,3.312,1.614,4.56,2.86c1.247,1.247,2.2,2.774,2.861,4.577
			c0.661,1.808,0.994,3.844,0.994,6.106c0,2.291-0.333,4.333-0.994,6.127c-0.661,1.795-1.614,3.312-2.861,4.559
			c-1.247,1.248-2.767,2.199-4.56,2.861C47.242,65.353,45.203,65.684,42.912,65.684z M42.912,39.277
			c-3.867,0-6.812,1.017-8.834,3.05c-2.021,2.038-3.032,4.976-3.032,8.815c0,3.869,1.011,6.819,3.032,8.852
			c2.022,2.037,4.967,3.054,8.834,3.054c3.869,0,6.812-1.017,8.834-3.054c2.022-2.032,3.033-4.982,3.033-8.852
			c0-3.84-1.011-6.777-3.033-8.815C49.724,40.294,46.781,39.277,42.912,39.277z"/>
		<path fill="#FFFFFF" d="M66.95,47.535c1.706-1.844,4.085-2.766,7.138-2.766v2.673c-2.288,0-4.03,0.671-5.227,2.003
			c-1.197,1.336-1.796,3.261-1.796,5.781v10.228h-2.669V55.227C64.396,51.945,65.248,49.382,66.95,47.535z"/>
		<path fill="#FFFFFF" d="M82.941,35.729v3.586H80.27v-3.586H82.941z M80.27,65.454V45.15h2.672v20.304H80.27z"/>
		<path fill="#FFFFFF" d="M42.499,95.103c3.304,0,5.874,0.924,7.706,2.768c1.833,1.843,2.747,4.407,2.747,7.689v8.243
			c0,3.277-0.923,5.84-2.767,7.666c-1.844,1.836-4.405,2.752-7.687,2.752v-2.673c2.518,0,4.438-0.662,5.762-1.983
			c1.322-1.323,1.982-3.246,1.982-5.762v-0.614c-1.831,1.883-4.415,2.825-7.744,2.825c-3.308,0-5.879-0.915-7.711-2.748
			c-1.832-1.83-2.746-4.398-2.746-7.706c0-3.282,0.914-5.847,2.746-7.689C36.62,96.026,39.191,95.103,42.499,95.103z M50.283,105.56
			c0-2.546-0.664-4.479-1.985-5.8c-1.324-1.324-3.257-1.986-5.799-1.986c-2.547,0-4.479,0.662-5.803,1.986
			c-1.323,1.321-1.985,3.254-1.985,5.8c0,2.545,0.662,4.478,1.985,5.8c1.323,1.323,3.256,1.982,5.803,1.982
			c2.365,0,4.201-0.57,5.514-1.717c1.31-1.145,2.052-2.823,2.23-5.035L50.283,105.56z"/>
		<path fill="#FFFFFF" d="M74.056,96.628c3.307,0,5.877,0.925,7.709,2.767c1.831,1.848,2.745,4.41,2.745,7.693v4.578
			c0,0.43-0.101,0.986-0.304,1.658c-0.207,0.675-0.668,1.324-1.395,1.945c-0.725,0.625-1.774,1.161-3.15,1.604
			c-1.37,0.445-3.238,0.67-5.605,0.67c-2.368,0-4.236-0.225-5.612-0.67c-1.371-0.442-2.422-0.979-3.148-1.604
			c-0.723-0.621-1.187-1.271-1.394-1.945c-0.202-0.672-0.302-1.229-0.302-1.658c0-1.555,0.241-2.776,0.726-3.667
			c0.481-0.892,1.131-1.558,1.945-2.001c0.813-0.445,1.774-0.732,2.881-0.857c1.105-0.129,2.293-0.191,3.567-0.191h8.931
			c-0.358-1.834-1.17-3.232-2.441-4.199c-1.276-0.965-2.992-1.45-5.152-1.45c-2.189,0-3.956,0.522-5.304,1.563l-1.643-2.1
			C68.914,97.343,71.232,96.628,74.056,96.628z M81.839,107.619h-7.783c-1.706,0-3.073,0.044-4.104,0.131
			c-1.029,0.093-1.817,0.276-2.363,0.555c-0.549,0.283-0.904,0.688-1.07,1.225c-0.166,0.532-0.247,1.244-0.247,2.137
			c0,0.586,0.229,1.079,0.687,1.488c0.458,0.403,1.055,0.738,1.795,0.991c0.735,0.253,1.569,0.437,2.495,0.553
			c0.931,0.115,1.865,0.173,2.809,0.173c0.942,0,1.876-0.058,2.803-0.173c0.928-0.116,1.765-0.3,2.501-0.553
			c0.74-0.253,1.337-0.588,1.793-0.991c0.456-0.409,0.687-0.902,0.687-1.488V107.619z"/>
		<path fill="#FFFFFF" d="M55.398,148.561c2.567,0,4.573,0.924,6.01,2.771c1.435,1.846,2.157,4.407,2.157,7.688v10.225h-2.635
			v-10.225c0-0.716-0.064-1.521-0.188-2.425c-0.129-0.902-0.389-1.754-0.782-2.557c-0.396-0.801-0.956-1.469-1.679-2.004
			c-0.726-0.533-1.686-0.802-2.883-0.802c-1.195,0-2.156,0.269-2.881,0.802c-0.724,0.535-1.283,1.203-1.679,2.004
			c-0.395,0.803-0.656,1.654-0.781,2.557c-0.129,0.904-0.193,1.709-0.193,2.425v10.225h-2.669v-10.225
			c0-0.716-0.064-1.521-0.192-2.425c-0.125-0.902-0.379-1.754-0.764-2.557c-0.379-0.801-0.932-1.469-1.658-2.004
			c-0.726-0.533-1.686-0.802-2.883-0.802s-2.155,0.269-2.879,0.802c-0.727,0.535-1.286,1.203-1.678,2.004
			c-0.396,0.803-0.657,1.654-0.785,2.557c-0.127,0.904-0.19,1.709-0.19,2.425v10.225h-2.671v-10.225c0-3.281,0.72-5.843,2.156-7.688
			c1.437-1.848,3.454-2.771,6.047-2.771c1.578,0,2.939,0.354,4.084,1.052c1.146,0.701,2.062,1.714,2.747,3.035
			c0.687-1.321,1.61-2.334,2.767-3.035C52.453,148.914,53.821,148.561,55.398,148.561z"/>
		<path fill="#FFFFFF" d="M78.027,139.521v3.586h-2.672v-3.586H78.027z M75.355,169.245v-20.3h2.672v20.3H75.355z"/>
	</g>
	<g>
		<path fill="#FFFFFF" d="M39.811,275.323l-2.471-2.015l1.009-1.233c1.948-2.411,2.925-5.643,2.925-9.696V229.72h3.158v32.659
			c0,4.848-1.206,8.752-3.614,11.707L39.811,275.323z"/>
		<path fill="#FFFFFF" d="M62.862,250.165c1.007,0.214,2.029,0.45,3.068,0.708c1.034,0.26,1.97,0.641,2.81,1.145
			c0.837,0.504,1.517,1.168,2.035,1.99c0.519,0.824,0.775,1.875,0.775,3.158c0,2.193-0.805,3.918-2.421,5.168
			c-1.618,1.248-3.815,1.873-6.586,1.873c-2.806,0-5.017-0.625-6.632-1.873c-1.616-1.25-2.427-2.975-2.427-5.168h3.203
			c0,0.791,0.174,1.437,0.525,1.94c0.351,0.505,0.807,0.899,1.374,1.188c0.561,0.293,1.194,0.488,1.897,0.598
			c0.701,0.104,1.387,0.158,2.059,0.158c0.669,0,1.35-0.054,2.031-0.158c0.689-0.109,1.312-0.305,1.881-0.598
			c0.562-0.289,1.027-0.684,1.392-1.188c0.366-0.504,0.551-1.149,0.551-1.94c0-0.551-0.084-1.012-0.252-1.377
			c-0.17-0.365-0.481-0.689-0.939-0.981c-0.455-0.288-1.089-0.55-1.896-0.777c-0.811-0.227-1.853-0.479-3.136-0.753
			c-1.004-0.212-2.026-0.459-3.062-0.736c-1.037-0.271-1.975-0.662-2.813-1.165c-0.842-0.503-1.518-1.165-2.035-1.988
			c-0.521-0.823-0.779-1.89-0.779-3.2c0-2.195,0.811-3.922,2.427-5.174c1.615-1.245,3.826-1.872,6.632-1.872
			c2.771,0,4.968,0.627,6.586,1.872c1.616,1.252,2.421,2.979,2.421,5.174h-3.152c0-0.795-0.185-1.442-0.551-1.949
			c-0.364-0.498-0.83-0.887-1.392-1.16c-0.569-0.277-1.191-0.466-1.881-0.573c-0.682-0.106-1.362-0.163-2.031-0.163
			c-0.672,0-1.357,0.057-2.059,0.163c-0.703,0.107-1.337,0.296-1.897,0.573c-0.567,0.273-1.023,0.662-1.374,1.16
			c-0.352,0.507-0.525,1.154-0.525,1.949c0,0.517,0.067,0.959,0.203,1.325c0.14,0.367,0.429,0.695,0.873,0.983
			c0.441,0.291,1.065,0.57,1.876,0.849C60.446,249.617,61.522,249.891,62.862,250.165z"/>
	</g>
	<line fill="none" stroke="#FFFFFF" stroke-width="2" stroke-miterlimit="10" x1="1.594" y1="198.906" x2="108.594" y2="198.906"/>
</g>
</svg>
