<?xml version="1.0" encoding="utf-8"?>
<!-- Generator: Adobe Illustrator 16.0.4, SVG Export Plug-In . SVG Version: 6.00 Build 0)  -->
<!DOCTYPE svg PUBLIC "-//W3C//DTD SVG 1.1//EN" "http://www.w3.org/Graphics/SVG/1.1/DTD/svg11.dtd">
<svg version="1.1" id="Layer_1" xmlns="http://www.w3.org/2000/svg" xmlns:xlink="http://www.w3.org/1999/xlink" x="0px" y="0px"
	 width="397.667px" height="141.73px" viewBox="0 0 397.667 141.73" enable-background="new 0 0 397.667 141.73"
	 xml:space="preserve">
<rect x="20.833" y="18.5" fill="none" stroke="#FFFFFF" stroke-width="3" stroke-miterlimit="10" width="357" height="104"/>
<line fill="none" stroke="#FFFFFF" stroke-width="3" stroke-miterlimit="10" x1="272.833" y1="18" x2="272.833" y2="124"/>
<g>
	<g>
		<path fill="#FFFFFF" d="M69.534,81.336c-2.485,0-4.701-0.359-6.646-1.078c-1.946-0.717-3.596-1.752-4.949-3.104
			c-1.353-1.354-2.387-3.004-3.105-4.949c-0.718-1.947-1.077-4.162-1.077-6.645c0-2.457,0.359-4.664,1.077-6.625
			s1.752-3.617,3.105-4.97s3.002-2.389,4.949-3.104c1.945-0.718,4.161-1.078,6.646-1.078c2.483,0,4.699,0.36,6.645,1.078
			c1.945,0.716,3.595,1.752,4.948,3.104c1.352,1.353,2.386,3.009,3.105,4.97c0.717,1.961,1.076,4.168,1.076,6.625
			c0,2.482-0.359,4.697-1.076,6.645c-0.719,1.945-1.753,3.596-3.105,4.949c-1.353,1.352-3.003,2.387-4.948,3.104
			C74.233,80.977,72.017,81.336,69.534,81.336z M69.534,52.682c-4.197,0-7.393,1.105-9.587,3.312
			c-2.195,2.21-3.292,5.397-3.292,9.566c0,4.195,1.097,7.396,3.292,9.604c2.194,2.21,5.39,3.312,9.587,3.312
			c4.194,0,7.39-1.102,9.584-3.312c2.194-2.208,3.292-5.409,3.292-9.604c0-4.169-1.098-7.356-3.292-9.566
			C76.924,53.787,73.729,52.682,69.534,52.682z"/>
		<path fill="#FFFFFF" d="M98.183,61.648c1.851-2.002,4.431-3.004,7.743-3.004v2.897c-2.483,0-4.375,0.727-5.672,2.176
			c-1.297,1.45-1.946,3.538-1.946,6.271v11.1H95.41v-11.1C95.41,66.431,96.333,63.649,98.183,61.648z"/>
		<path fill="#FFFFFF" d="M118.513,48.832v3.891h-2.899v-3.891H118.513z M115.614,81.088V59.06h2.899v22.028H115.614z"/>
		<path fill="#FFFFFF" d="M139.132,58.604c3.587,0,6.376,1.002,8.364,3.004c1.987,2,2.981,4.779,2.981,8.343v8.94
			c0,3.562-1,6.336-3.001,8.324s-4.782,2.98-8.343,2.98v-2.896c2.732,0,4.816-0.718,6.251-2.152
			c1.436-1.441,2.155-3.521,2.155-6.256v-0.662c-1.988,2.043-4.791,3.065-8.407,3.065c-3.588,0-6.376-0.993-8.364-2.981
			c-1.988-1.988-2.981-4.777-2.981-8.362c0-3.563,0.994-6.343,2.981-8.343C132.756,59.605,135.544,58.604,139.132,58.604z
			 M147.58,69.95c0-2.763-0.718-4.861-2.154-6.294c-1.436-1.436-3.533-2.156-6.293-2.156s-4.859,0.721-6.293,2.156
			c-1.436,1.433-2.153,3.531-2.153,6.294c0,2.759,0.717,4.854,2.153,6.295c1.435,1.431,3.533,2.149,6.293,2.149
			c2.567,0,4.561-0.62,5.983-1.863c1.421-1.242,2.228-3.062,2.423-5.463L147.58,69.95z"/>
		<path fill="#FFFFFF" d="M170.435,58.604c3.589,0,6.377,1.002,8.364,3.004c1.988,2,2.982,4.779,2.982,8.343v4.968
			c0,0.47-0.112,1.07-0.332,1.801c-0.222,0.73-0.725,1.436-1.511,2.113c-0.787,0.674-1.927,1.254-3.416,1.736
			c-1.491,0.486-3.521,0.726-6.088,0.726c-2.567,0-4.595-0.239-6.086-0.726c-1.491-0.482-2.63-1.062-3.416-1.736
			c-0.788-0.678-1.29-1.383-1.511-2.113s-0.332-1.331-0.332-1.801c0-1.684,0.263-3.011,0.788-3.977
			c0.523-0.964,1.228-1.689,2.111-2.174c0.883-0.481,1.926-0.791,3.126-0.932c1.2-0.138,2.49-0.207,3.872-0.207h9.688
			c-0.388-1.986-1.27-3.504-2.65-4.553c-1.381-1.05-3.243-1.576-5.59-1.576c-2.374,0-4.292,0.566-5.755,1.697l-1.78-2.275
			C164.858,59.377,167.372,58.604,170.435,58.604z M178.883,70.527h-8.448c-1.85,0-3.332,0.051-4.451,0.146
			c-1.118,0.098-1.974,0.295-2.567,0.599c-0.593,0.306-0.979,0.746-1.159,1.327c-0.18,0.578-0.269,1.351-0.269,2.318
			c0,0.635,0.249,1.174,0.746,1.613c0.497,0.443,1.145,0.803,1.946,1.077c0.8,0.274,1.705,0.477,2.711,0.599
			c1.008,0.125,2.022,0.188,3.043,0.188c1.022,0,2.036-0.062,3.044-0.188c1.007-0.122,1.911-0.324,2.712-0.599
			c0.799-0.274,1.448-0.634,1.945-1.077c0.497-0.439,0.746-0.979,0.746-1.613V70.527z"/>
		<path fill="#FFFFFF" d="M215.527,58.645c2.786,0,4.962,1.002,6.521,3.004c1.56,2.001,2.34,4.782,2.34,8.34v11.1h-2.858v-11.1
			c0-0.771-0.068-1.648-0.206-2.627c-0.139-0.98-0.422-1.904-0.849-2.773c-0.43-0.87-1.036-1.596-1.821-2.176
			c-0.789-0.579-1.829-0.87-3.126-0.87c-1.298,0-2.341,0.291-3.126,0.87c-0.788,0.58-1.396,1.306-1.823,2.176
			c-0.428,0.869-0.712,1.793-0.85,2.773c-0.137,0.979-0.207,1.855-0.207,2.627v11.1h-2.897v-11.1c0-0.771-0.07-1.648-0.207-2.627
			c-0.138-0.98-0.415-1.904-0.828-2.773c-0.414-0.87-1.016-1.596-1.803-2.176c-0.785-0.579-1.828-0.87-3.125-0.87
			c-1.298,0-2.339,0.291-3.126,0.87c-0.787,0.58-1.395,1.306-1.821,2.176c-0.428,0.869-0.71,1.793-0.849,2.773
			c-0.139,0.979-0.207,1.855-0.207,2.627v11.1h-2.899v-11.1c0-3.558,0.78-6.339,2.341-8.34c1.558-2.002,3.746-3.004,6.561-3.004
			c1.712,0,3.189,0.38,4.43,1.139c1.242,0.761,2.236,1.857,2.982,3.293c0.744-1.436,1.745-2.532,3.002-3.293
			C212.331,59.024,213.814,58.645,215.527,58.645z"/>
		<path fill="#FFFFFF" d="M238.259,48.832v3.891h-2.9v-3.891H238.259z M235.358,81.088V59.06h2.9v22.028H235.358z"/>
	</g>
	<path fill="#FFFFFF" d="M313.412,91.355l-2.236-1.82l0.911-1.117c1.77-2.182,2.651-5.111,2.651-8.783V50.074h2.856v29.561
		c0,4.392-1.092,7.926-3.271,10.602L313.412,91.355z"/>
	<path fill="#FFFFFF" d="M334.586,68.58c0.911,0.195,1.835,0.409,2.773,0.645c0.938,0.234,1.788,0.58,2.548,1.033
		c0.758,0.457,1.373,1.057,1.843,1.801s0.705,1.699,0.705,2.859c0,1.986-0.732,3.548-2.196,4.678
		c-1.463,1.133-3.451,1.698-5.961,1.698c-2.541,0-4.542-0.565-6.006-1.698c-1.463-1.13-2.195-2.691-2.195-4.678h2.9
		c0,0.715,0.159,1.303,0.477,1.757c0.316,0.46,0.731,0.817,1.24,1.08c0.513,0.262,1.084,0.44,1.72,0.536
		c0.635,0.096,1.256,0.146,1.864,0.146c0.605,0,1.22-0.051,1.842-0.146c0.621-0.096,1.185-0.274,1.698-0.536
		c0.511-0.263,0.933-0.62,1.263-1.08c0.33-0.454,0.495-1.042,0.495-1.757c0-0.498-0.076-0.911-0.226-1.242
		c-0.153-0.33-0.436-0.629-0.85-0.891c-0.416-0.261-0.988-0.495-1.72-0.705c-0.731-0.207-1.676-0.434-2.834-0.682
		c-0.912-0.193-1.837-0.415-2.773-0.664c-0.94-0.246-1.791-0.6-2.548-1.056c-0.76-0.454-1.373-1.056-1.843-1.801
		s-0.706-1.712-0.706-2.896c0-1.99,0.732-3.55,2.195-4.681c1.464-1.132,3.465-1.698,6.006-1.698c2.51,0,4.498,0.566,5.961,1.698
		c1.464,1.131,2.196,2.69,2.196,4.681h-2.859c0-0.721-0.165-1.305-0.495-1.762s-0.752-0.809-1.263-1.057
		c-0.514-0.247-1.077-0.42-1.698-0.516c-0.622-0.1-1.236-0.148-1.842-0.148c-0.608,0-1.229,0.049-1.864,0.148
		c-0.636,0.096-1.207,0.269-1.72,0.516c-0.509,0.248-0.924,0.6-1.24,1.057c-0.317,0.457-0.477,1.041-0.477,1.762
		c0,0.467,0.061,0.865,0.186,1.195c0.125,0.332,0.388,0.633,0.787,0.893c0.4,0.264,0.966,0.519,1.697,0.766
		C332.398,68.086,333.372,68.333,334.586,68.58z"/>
</g>
</svg>
