<?xml version="1.0" encoding="utf-8"?>
<!-- Generator: Adobe Illustrator 16.0.0, SVG Export Plug-In . SVG Version: 6.00 Build 0)  -->
<!DOCTYPE svg PUBLIC "-//W3C//DTD SVG 1.1//EN" "http://www.w3.org/Graphics/SVG/1.1/DTD/svg11.dtd">
<svg version="1.1" id="Layer_1" xmlns="http://www.w3.org/2000/svg" xmlns:xlink="http://www.w3.org/1999/xlink" x="0px" y="0px"
	 width="132.366px" height="193.5px" viewBox="0 0 132.366 193.5" enable-background="new 0 0 132.366 193.5" xml:space="preserve">
<g>
	<g>
		<g>
			
				<image overflow="visible" opacity="0.2" width="79" height="53" xlink:href="5F255473.png"  transform="matrix(1 0 0 1 38.3657 107)">
			</image>
			<g>
				<polygon fill="#140012" points="107.446,150.924 67.497,150.777 47.386,116.583 87.62,116.583 				"/>
			</g>
		</g>
		<path fill="#FFFFFF" d="M27.588,39.858c-1.445,0-2.732-0.208-3.864-0.626c-1.132-0.417-2.09-1.019-2.877-1.806
			c-0.787-0.786-1.39-1.745-1.805-2.877c-0.418-1.132-0.627-2.418-0.627-3.864c0-1.428,0.209-2.712,0.627-3.852
			c0.415-1.139,1.018-2.102,1.805-2.889c0.787-0.786,1.745-1.388,2.877-1.806c1.132-0.418,2.419-0.627,3.864-0.627
			c1.445,0,2.731,0.209,3.864,0.627c1.131,0.417,2.09,1.02,2.877,1.806c0.787,0.787,1.388,1.75,1.806,2.889
			c0.417,1.14,0.626,2.424,0.626,3.852c0,1.445-0.209,2.732-0.626,3.864c-0.417,1.132-1.019,2.091-1.806,2.877
			c-0.787,0.787-1.746,1.388-2.877,1.806C30.319,39.65,29.033,39.858,27.588,39.858z M27.588,23.198
			c-2.441,0-4.297,0.642-5.574,1.925c-1.275,1.285-1.914,3.139-1.914,5.562c0,2.44,0.639,4.302,1.914,5.585
			c1.277,1.283,3.133,1.925,5.574,1.925c2.44,0,4.297-0.642,5.573-1.925c1.275-1.284,1.914-3.145,1.914-5.585
			c0-2.423-0.638-4.277-1.914-5.562C31.885,23.84,30.028,23.198,27.588,23.198z"/>
		<path fill="#FFFFFF" d="M42.754,28.41c1.076-1.164,2.576-1.745,4.502-1.745v1.685c-1.443,0-2.543,0.422-3.298,1.264
			c-0.755,0.842-1.132,2.058-1.132,3.646v6.453h-1.684v-6.453C41.142,31.191,41.679,29.574,42.754,28.41z"/>
		<path fill="#FFFFFF" d="M52.842,20.96v2.262h-1.686V20.96H52.842z M51.156,39.714V26.906h1.686v12.808H51.156z"/>
		<path fill="#FFFFFF" d="M27.327,58.419c2.084,0,3.707,0.583,4.862,1.746c1.156,1.164,1.733,2.781,1.733,4.851v5.201
			c0,2.069-0.582,3.684-1.746,4.838c-1.164,1.156-2.779,1.734-4.849,1.734v-1.685c1.588,0,2.8-0.417,3.635-1.252
			c0.834-0.834,1.251-2.046,1.251-3.635v-0.386c-1.155,1.188-2.786,1.782-4.886,1.782c-2.087,0-3.708-0.578-4.864-1.734
			c-1.156-1.154-1.733-2.775-1.733-4.863c0-2.07,0.578-3.687,1.733-4.851C23.619,59.001,25.24,58.419,27.327,58.419z M32.237,65.016
			c0-1.605-0.418-2.825-1.252-3.658c-0.835-0.835-2.055-1.253-3.659-1.253c-1.606,0-2.826,0.418-3.66,1.253
			c-0.835,0.833-1.253,2.053-1.253,3.658c0,1.606,0.418,2.826,1.253,3.66c0.834,0.835,2.054,1.251,3.66,1.251
			c1.492,0,2.65-0.361,3.478-1.083c0.827-0.722,1.295-1.781,1.408-3.177L32.237,65.016z"/>
		<path fill="#FFFFFF" d="M47.235,59.382c2.086,0,3.708,0.582,4.864,1.745c1.155,1.164,1.732,2.781,1.732,4.852v2.889
			c0,0.272-0.064,0.622-0.191,1.047c-0.13,0.426-0.423,0.835-0.879,1.228c-0.458,0.394-1.12,0.731-1.987,1.012
			c-0.866,0.28-2.045,0.422-3.538,0.422s-2.672-0.142-3.54-0.422c-0.866-0.281-1.528-0.618-1.986-1.012
			c-0.457-0.392-0.75-0.802-0.879-1.228c-0.128-0.425-0.191-0.774-0.191-1.047c0-0.979,0.152-1.75,0.458-2.312
			c0.305-0.563,0.714-0.982,1.227-1.263c0.514-0.281,1.12-0.461,1.817-0.542c0.698-0.081,1.448-0.121,2.251-0.121h5.634
			c-0.226-1.155-0.738-2.038-1.54-2.648c-0.805-0.609-1.888-0.916-3.251-0.916c-1.38,0-2.496,0.33-3.346,0.986l-1.036-1.324
			C43.992,59.832,45.454,59.382,47.235,59.382z M52.146,66.315h-4.911c-1.076,0-1.938,0.028-2.589,0.084
			c-0.649,0.057-1.146,0.173-1.492,0.35c-0.345,0.178-0.569,0.434-0.674,0.771c-0.104,0.337-0.157,0.787-0.157,1.349
			c0,0.37,0.145,0.682,0.434,0.939c0.289,0.256,0.666,0.466,1.132,0.626c0.465,0.16,0.99,0.276,1.575,0.349
			c0.588,0.072,1.178,0.108,1.771,0.108c0.595,0,1.183-0.036,1.77-0.108c0.585-0.072,1.111-0.188,1.576-0.349
			c0.467-0.16,0.844-0.371,1.132-0.626c0.288-0.257,0.433-0.569,0.433-0.939V66.315z"/>
		<path fill="#FFFFFF" d="M35.465,92.147c1.62,0,2.886,0.581,3.792,1.746c0.905,1.164,1.36,2.781,1.36,4.852v6.451h-1.662v-6.451
			c0-0.452-0.041-0.96-0.12-1.53c-0.081-0.569-0.245-1.106-0.493-1.613c-0.25-0.505-0.603-0.927-1.059-1.264
			c-0.458-0.336-1.063-0.506-1.819-0.506c-0.754,0-1.36,0.17-1.817,0.506c-0.457,0.337-0.81,0.759-1.059,1.264
			c-0.25,0.507-0.415,1.044-0.494,1.613c-0.081,0.57-0.122,1.078-0.122,1.53v6.451H30.29v-6.451c0-0.452-0.041-0.96-0.122-1.53
			c-0.079-0.569-0.239-1.106-0.481-1.613c-0.239-0.505-0.588-0.927-1.046-1.264c-0.458-0.336-1.064-0.506-1.819-0.506
			c-0.754,0-1.359,0.17-1.816,0.506c-0.458,0.337-0.812,0.759-1.059,1.264c-0.25,0.507-0.415,1.044-0.496,1.613
			c-0.079,0.57-0.119,1.078-0.119,1.53v6.451h-1.686v-6.451c0-2.07,0.454-3.688,1.36-4.852c0.907-1.165,2.18-1.746,3.815-1.746
			c0.996,0,1.854,0.222,2.577,0.661c0.724,0.443,1.3,1.081,1.733,1.915c0.433-0.834,1.016-1.472,1.745-1.915
			C33.607,92.369,34.47,92.147,35.465,92.147z"/>
		<path fill="#FFFFFF" d="M49.741,86.442v2.263h-1.685v-2.263H49.741z M48.056,105.196V92.389h1.685v12.808H48.056z"/>
		
			<rect x="4.827" y="5.811" fill="none" stroke="#FFFFFF" stroke-width="2" stroke-miterlimit="10" width="62.643" height="180.783"/>
		<path fill="#FFFFFF" d="M26.442,170.227l-1.558-1.27l0.635-0.778c1.23-1.521,1.846-3.561,1.846-6.118v-20.604h1.992v20.604
			c0,3.059-0.761,5.521-2.28,7.386L26.442,170.227z"/>
		<path fill="#FFFFFF" d="M40.986,154.355c0.635,0.136,1.28,0.283,1.935,0.446c0.652,0.164,1.243,0.405,1.773,0.722
			c0.529,0.318,0.957,0.737,1.284,1.256c0.328,0.52,0.49,1.184,0.49,1.992c0,1.384-0.508,2.472-1.528,3.26
			c-1.02,0.789-2.406,1.184-4.155,1.184c-1.77,0-3.165-0.395-4.184-1.184c-1.02-0.788-1.531-1.876-1.531-3.26h2.021
			c0,0.5,0.11,0.907,0.331,1.225c0.222,0.318,0.51,0.569,0.867,0.751c0.354,0.183,0.755,0.308,1.197,0.375
			c0.444,0.067,0.876,0.102,1.299,0.102c0.422,0,0.851-0.034,1.282-0.102c0.435-0.067,0.828-0.192,1.186-0.375
			c0.354-0.182,0.648-0.433,0.879-0.751c0.23-0.317,0.347-0.725,0.347-1.225c0-0.347-0.054-0.637-0.16-0.868
			c-0.106-0.23-0.303-0.436-0.591-0.619c-0.288-0.183-0.688-0.346-1.198-0.49c-0.51-0.144-1.168-0.303-1.978-0.476
			c-0.633-0.135-1.278-0.289-1.932-0.463c-0.654-0.172-1.246-0.419-1.775-0.736c-0.531-0.317-0.957-0.735-1.284-1.255
			c-0.328-0.521-0.492-1.192-0.492-2.02c0-1.385,0.511-2.473,1.531-3.262c1.019-0.787,2.414-1.183,4.184-1.183
			c1.749,0,3.135,0.396,4.155,1.183c1.02,0.789,1.528,1.877,1.528,3.262h-1.989c0-0.5-0.116-0.909-0.347-1.228
			c-0.231-0.316-0.525-0.562-0.879-0.734c-0.358-0.174-0.751-0.294-1.186-0.361c-0.431-0.066-0.86-0.102-1.282-0.102
			c-0.423,0-0.855,0.035-1.299,0.102c-0.442,0.067-0.842,0.188-1.197,0.361c-0.357,0.173-0.645,0.418-0.867,0.734
			c-0.221,0.318-0.331,0.728-0.331,1.228c0,0.327,0.042,0.605,0.128,0.837c0.087,0.231,0.27,0.438,0.551,0.62
			c0.278,0.184,0.672,0.36,1.182,0.536C39.461,154.01,40.14,154.183,40.986,154.355z"/>
		<line fill="none" x1="4.957" y1="127.541" x2="67.598" y2="126.618"/>
		<line fill="none" stroke="#FFFFFF" stroke-width="2" stroke-miterlimit="10" x1="5.366" y1="127" x2="68.366" y2="127"/>
		<g>
			
				<image overflow="visible" opacity="0.25" width="59" height="54" xlink:href="5F255471.png"  transform="matrix(1 0 0 1 41.3657 75)">
			</image>
			<g>
				<polygon fill="#280123" points="87.62,116.583 67.333,81.401 47.386,116.583 				"/>
			</g>
		</g>
		<g>
			
				<image overflow="visible" opacity="0.25" width="86" height="94" xlink:href="5F255477.png"  transform="matrix(1 0 0 1 50.3657 73)">
			</image>
			<g>
				<polygon fill="#550248" points="127.54,116.297 107.436,81.401 67.333,81.401 107.446,150.924 				"/>
			</g>
		</g>
	</g>
</g>
</svg>
